<?xml version="1.0" encoding="utf-8"?>
<!-- Generator: Adobe Illustrator 24.2.1, SVG Export Plug-In . SVG Version: 6.00 Build 0)  -->
<svg version="1.1" id="Layer_1" xmlns="http://www.w3.org/2000/svg" xmlns:xlink="http://www.w3.org/1999/xlink" x="0px" y="0px"
	 viewBox="0 0 84.96 68.26" style="enable-background:new 0 0 84.96 68.26;" xml:space="preserve">
<style type="text/css">
	.st0{fill:#CAD2C5;stroke:#000000;stroke-width:0.3259;stroke-miterlimit:10;}
	.st1{fill:#364F52;stroke:#000000;stroke-width:0.3259;stroke-miterlimit:10;}
	.st2{fill:#97C6B6;stroke:#000000;stroke-width:0.3259;stroke-miterlimit:10;}
	.st3{fill:#84A98C;stroke:#000000;stroke-width:0.3245;stroke-miterlimit:10;}
	.st4{fill:#52796F;stroke:#000000;stroke-width:0.3259;stroke-miterlimit:10;}
	.st5{fill:#FCDEE9;stroke:#000000;stroke-width:0.3259;stroke-miterlimit:10;}
	.st6{fill:#ED258B;stroke:#000000;stroke-width:0.3259;stroke-miterlimit:10;}
	.st7{fill:#720D28;stroke:#000000;stroke-width:0.3259;stroke-miterlimit:10;}
	.st8{fill:#7AC1EB;stroke:#000000;stroke-width:0.3259;stroke-miterlimit:10;}
</style>
<polygon class="st0" points="28.54,2.08 16.85,22.33 40.23,22.33 "/>
<polygon class="st1" points="52.11,2.08 40.42,22.33 63.8,22.33 "/>
<polygon class="st2" points="28.54,42.58 16.85,22.33 40.23,22.33 "/>
<polygon class="st3" points="40.33,22.33 28.73,42.58 51.92,42.58 "/>
<polygon class="st4" points="51.92,42.58 40.23,22.33 63.61,22.33 "/>
<polygon class="st5" points="40.23,62.83 28.54,42.58 51.92,42.58 "/>
<polygon class="st6" points="56.01,39.78 44.32,60.03 67.7,60.03 "/>
<polygon class="st7" points="72.45,65.19 60.76,44.94 84.14,44.94 "/>
<g>
	<g>
		<path d="M57.39,59.69c-0.97,1.61-2.29,3.05-3.89,4.1c-1.58,1.07-3.41,1.84-5.36,2.12c-0.98,0.14-1.99,0.16-3.01,0.02
			c-1.02-0.15-2.05-0.53-2.91-1.13c-1.75-1.2-2.84-3.1-3.24-5.03l1.34-0.43c0.72,1.56,1.78,2.86,3.08,3.74
			c0.64,0.45,1.35,0.79,2.12,1.01c0.78,0.21,1.62,0.27,2.46,0.23c1.69-0.1,3.4-0.64,4.93-1.51c1.53-0.86,2.9-2.04,3.98-3.47
			L57.39,59.69z"/>
		<g>
			<path d="M58.65,56.23c-1.31,1.26-3.19,2.7-4.79,3.39l3.02,0.3l2.13,2.16C58.55,60.42,58.49,58.04,58.65,56.23z"/>
		</g>
		<g>
			<path d="M39.18,55.98c0.88,1.59,2.27,3.52,3.6,4.64l-2.98-0.59l-2.66,1.45C38.07,60.01,38.81,57.76,39.18,55.98z"/>
		</g>
	</g>
</g>
<g>
	<g>
		<path d="M56.94,43.03c0.99-1.19,2.17-2.23,3.51-3.05c1.34-0.8,2.86-1.46,4.55-1.56c1.67-0.15,3.51,0.37,4.85,1.49
			c1.34,1.14,2.1,2.71,2.5,4.25l-1.44,0.54c-0.66-1.27-1.46-2.38-2.42-3.21c-0.94-0.83-2.11-1.46-3.46-1.46
			c-1.34-0.05-2.73,0.37-4.02,0.99c-1.28,0.65-2.51,1.48-3.58,2.49L56.94,43.03z"/>
		<g>
			<path d="M55.16,46.26c1.5-1.03,3.6-2.13,5.29-2.55l-2.93-0.8l-1.74-2.49C55.96,42.16,55.62,44.51,55.16,46.26z"/>
		</g>
		<g>
			<path d="M72.45,47.96c-1.03-1.5-2.58-3.29-4.01-4.29l3.02,0.31l2.52-1.69C73.19,43.84,72.65,46.15,72.45,47.96z"/>
		</g>
	</g>
</g>
<path class="st6" d="M33.13,57.15"/>
<polygon class="st8" points="12.66,26.76 0.97,6.51 24.35,6.51 "/>
<g>
	<g>
		<path d="M13.93,5.63c0.91-1.43,2.12-2.73,3.64-3.61c1.49-0.9,3.26-1.44,5.1-1.35c0.92,0.04,1.85,0.26,2.72,0.7
			c0.87,0.43,1.6,1.09,2.17,1.83c1.12,1.52,1.57,3.35,1.59,5.1l-1.26,0.15c-0.37-1.54-0.98-2.97-1.85-4.12
			c-0.83-1.18-2-2.03-3.51-2.22c-1.47-0.2-3.06,0.12-4.47,0.82c-1.42,0.69-2.67,1.75-3.68,3.01L13.93,5.63z"/>
		<g>
			<path d="M12.66,8.71c1.23-1.1,2.98-2.33,4.45-2.9l-2.72-0.38L12.54,3.4C12.9,4.93,12.87,7.08,12.66,8.71z"/>
		</g>
		<g>
			<path d="M28.46,11.66c-0.57-1.54-1.55-3.46-2.59-4.64l2.58,0.93l2.58-0.94C30,8.2,29.03,10.11,28.46,11.66z"/>
		</g>
	</g>
</g>
</svg>
