<svg id="Layer_1" data-name="Layer 1" xmlns="http://www.w3.org/2000/svg" viewBox="0 0 60.72 83.4"><defs><style>.cls-1{fill:#526661;}.cls-1,.cls-2,.cls-3,.cls-4,.cls-5,.cls-6,.cls-7,.cls-8{stroke:#231f20;stroke-miterlimit:10;stroke-width:0.33px;}.cls-2{fill:#829f9a;}.cls-3{fill:#c8bb9a;}.cls-4{fill:#e9e3d6;}.cls-5{fill:#658079;}.cls-6{fill:#fcdee9;}.cls-7{fill:#ed258b;}.cls-8{fill:#c2dbab;}.cls-9{fill:#de9e35;}</style></defs><polygon class="cls-1" points="24.26 0.38 12.57 20.63 35.95 20.63 24.26 0.38"/><polygon class="cls-2" points="11.97 20.41 0.28 0.16 23.66 0.16 11.97 20.41"/><polygon class="cls-3" points="24.26 41.31 12.57 21.06 35.95 21.06 24.26 41.31"/><polygon class="cls-4" points="36.47 21.3 24.78 41.55 48.16 41.55 36.47 21.3"/><polygon class="cls-3" points="48.74 41.55 37.05 21.3 60.44 21.3 48.74 41.55"/><polygon class="cls-5" points="48.74 0.56 37.05 20.81 60.44 20.81 48.74 0.56"/><polygon class="cls-6" points="36.57 62.82 24.88 42.57 48.26 42.57 36.57 62.82"/><polygon class="cls-7" points="29.03 58.17 17.34 78.42 40.72 78.42 29.03 58.17"/><polygon class="cls-8" points="11.97 83.07 0.28 62.82 23.66 62.82 11.97 83.07"/><path class="cls-9" d="M54.53,60.5a13.16,13.16,0,0,1,4.75,10.09,10.28,10.28,0,0,1-.43,3,7.06,7.06,0,0,1-1.56,2.7,8.08,8.08,0,0,1-5.46,2.45l-.22-1.39a9,9,0,0,0,4.16-2.48,7.23,7.23,0,0,0,1.32-1.94,7.91,7.91,0,0,0,.6-2.4,11.66,11.66,0,0,0-.75-5.1A12.75,12.75,0,0,0,54.12,61Z" transform="translate(-6.04 -4.65)"/><path class="cls-9" d="M51.3,58.73A18.22,18.22,0,0,1,53.93,64L54.68,61l2.46-1.78A17.9,17.9,0,0,1,51.3,58.73Z" transform="translate(-6.04 -4.65)"/><path class="cls-9" d="M48.1,77.94a18.05,18.05,0,0,0,5.13-2.85l-1,2.85,1,2.86A18.08,18.08,0,0,0,48.1,77.94Z" transform="translate(-6.04 -4.65)"/><path class="cls-9" d="M16.5,62.56A14.4,14.4,0,0,1,19,58.65,10.06,10.06,0,0,1,23,55.9a6.84,6.84,0,0,1,5.07.09,8.17,8.17,0,0,1,3.57,3.4l-1.23.91a11,11,0,0,0-3.21-2.42,5.27,5.27,0,0,0-3.73-.45,8.63,8.63,0,0,0-3.59,2,15.29,15.29,0,0,0-2.76,3.38Z" transform="translate(-6.04 -4.65)"/><path class="cls-9" d="M15.67,66.15a18.14,18.14,0,0,1,4.38-3.9l-3,0-2.36-1.91A17.86,17.86,0,0,1,15.67,66.15Z" transform="translate(-6.04 -4.65)"/><path class="cls-9" d="M32.76,63a18.07,18.07,0,0,0-5-3l3-.53,2-2.32A18.33,18.33,0,0,0,32.76,63Z" transform="translate(-6.04 -4.65)"/><path class="cls-7" d="M34.29,60.1" transform="translate(-6.04 -4.65)"/></svg>