<?xml version="1.0" encoding="utf-8"?>
<!-- Generator: Adobe Illustrator 24.1.3, SVG Export Plug-In . SVG Version: 6.00 Build 0)  -->
<svg version="1.1" id="Layer_1" xmlns="http://www.w3.org/2000/svg" xmlns:xlink="http://www.w3.org/1999/xlink" x="0px" y="0px"
	 viewBox="0 0 41.1 40.1" style="enable-background:new 0 0 41.1 40.1;" xml:space="preserve">
<path d="M20.6,0c11.4,0,20.6,9.2,20.6,20.6c0,9.1-5.9,16.8-14.1,19.5c-1,0.2-1.4-0.5-1.4-1c0-0.7,0-2.9,0-5.7c0-1.9-0.6-3.2-1.4-3.8
	c4.6-0.5,9.4-2.3,9.4-10.2c0-2.3-0.8-4.1-2.1-5.5c0.2-0.5,0.9-2.6-0.2-5.5c-1.7-0.5-5.7,2.1-5.7,2.1c-1.6-0.5-3.4-0.7-5.1-0.7
	s-3.5,0.2-5.1,0.7c0,0-3.9-2.7-5.7-2.1c-1.1,2.8-0.4,4.9-0.2,5.5c-1.3,1.4-2.1,3.3-2.1,5.5c0,7.9,4.8,9.6,9.4,10.2
	c-0.6,0.5-1.1,1.4-1.3,2.8c-1.2,0.5-4.2,1.4-6-1.7c-1.1-2-3.2-2.1-3.2-2.1c-2,0-0.1,1.3-0.1,1.3c1.3,0.6,2.3,3,2.3,3
	c1.2,3.7,6.9,2.4,6.9,2.4c0,1.7,0,3.3,0,3.8c0,0.5-0.4,1.2-1.4,1C5.9,37.4,0,29.7,0,20.6C0,9.2,9.2,0,20.6,0L20.6,0z M7.8,29.5
	c0.1-0.1,0-0.2-0.2-0.3c-0.2-0.1-0.3,0-0.3,0.1c-0.1,0.1,0,0.2,0.2,0.3C7.6,29.7,7.7,29.7,7.8,29.5z M8.6,30.5
	c0.1-0.1,0.1-0.3-0.1-0.4c-0.1-0.1-0.3-0.2-0.4-0.1C8,30,8.1,30.2,8.2,30.4C8.3,30.5,8.5,30.6,8.6,30.5z M9.4,31.7
	c0.1-0.1,0.1-0.3,0-0.5C9.3,31,9.1,30.9,9,31c-0.1,0.1-0.1,0.3,0,0.5C9.1,31.7,9.3,31.7,9.4,31.7L9.4,31.7z M10.5,32.8
	c0.1-0.1,0.1-0.3-0.1-0.5c-0.2-0.2-0.4-0.2-0.5-0.1c-0.1,0.1-0.1,0.3,0.1,0.5C10.2,32.9,10.4,32.9,10.5,32.8z M12.1,33.5
	c0.1-0.2-0.1-0.3-0.3-0.4c-0.2-0.1-0.5,0-0.5,0.2c-0.1,0.2,0.1,0.3,0.3,0.4C11.8,33.7,12,33.6,12.1,33.5L12.1,33.5z M13.8,33.6
	c0-0.2-0.2-0.3-0.5-0.3c-0.2,0-0.4,0.1-0.4,0.3c0,0.2,0.2,0.3,0.5,0.3C13.6,33.9,13.8,33.8,13.8,33.6z M15.3,33.3
	c0-0.2-0.2-0.3-0.5-0.2c-0.2,0.1-0.4,0.2-0.4,0.4c0,0.2,0.2,0.3,0.5,0.2S15.3,33.5,15.3,33.3L15.3,33.3z"/>
</svg>
