<?xml version="1.0" encoding="utf-8"?>
<!-- Generator: Adobe Illustrator 24.1.3, SVG Export Plug-In . SVG Version: 6.00 Build 0)  -->
<svg version="1.1" id="Layer_1" xmlns="http://www.w3.org/2000/svg" xmlns:xlink="http://www.w3.org/1999/xlink" x="0px" y="0px"
	 viewBox="0 0 142.4 126.7" style="enable-background:new 0 0 142.4 126.7;" xml:space="preserve">
<path d="M70.5,0C34.3,0,5,28.4,5,63.3c0,35.2,29.3,63.4,65.5,63.4S136,98.4,136,63.4C136.2,28.4,106.7,0,70.5,0z M103.7,50.7
	c0,0.7,0,1.4,0,2.1c0,21.1-16.7,45.4-47.1,45.4c-9.3,0-18-2.8-25.3-7.2c1.3,0.1,2.7,0.2,4,0.2c7.7,0,14.9-2.5,20.5-6.8
	c-7.2-0.1-13.3-4.7-15.4-11c1.1,0.1,2,0.2,3,0.2c1.5,0,2.9-0.1,4.4-0.6c-7.6-1.4-13.3-7.9-13.3-15.7c0-0.1,0-0.1,0-0.2
	c2.2,1.2,4.8,2,7.5,2.1c-4.4-2.9-7.4-7.7-7.4-13.2c0-3,0.8-5.6,2.2-7.9c8.2,9.7,20.4,16,34.1,16.8c-0.2-1.2-0.4-2.4-0.4-3.6
	c0-8.9,7.5-16,16.6-16c4.8,0,9.1,2,12.1,5.1c3.7-0.8,7.4-2.1,10.5-3.9c-1.2,3.7-3.9,6.8-7.4,8.9c3.4-0.4,6.5-1.3,9.5-2.5
	C109.6,45.5,106.9,48.4,103.7,50.7z"/>
</svg>
